<svg width="32" height="32" viewBox="0 0 32 32" fill="none" xmlns="http://www.w3.org/2000/svg">
<path d="M19.5 27C20.8805 27.0003 22 28.1195 22 29.5C22 30.8805 20.8805 31.9997 19.5 32C18.1193 32 17 30.8807 17 29.5C17 28.1193 18.1193 27 19.5 27ZM13.8574 19.3438C14.3686 17.9419 15.9194 17.2195 17.3213 17.7305C18.7231 18.2416 19.4455 19.7925 18.9346 21.1943C18.4234 22.5963 16.8717 23.3188 15.4697 22.8076C14.9006 22.6 14.4456 22.2189 14.1377 21.748L9.17969 24.0576C9.34656 24.8525 9.30259 25.7023 9.00391 26.5215C8.1519 28.8578 5.56686 30.0606 3.23047 29.209C0.894246 28.357 -0.3095 25.7729 0.541992 23.4365C1.39389 21.1 3.97891 19.8953 6.31543 20.7471C7.52158 21.1869 8.424 22.0899 8.89941 23.1807L13.7705 20.9141C13.6465 20.4112 13.6668 19.8669 13.8574 19.3438ZM16.0312 0C19.4087 0.000237334 22.1465 2.73869 22.1465 6.11621C22.1464 7.86003 21.4151 9.43187 20.2441 10.5459L25.4043 15.7061C25.9882 15.3141 26.6912 15.0859 27.4473 15.0859C29.4737 15.0861 31.1161 16.7285 31.1162 18.7549C31.1162 20.7814 29.4737 22.4247 27.4473 22.4248C25.4207 22.4248 23.7773 20.7815 23.7773 18.7549C23.7774 17.9318 24.0482 17.1717 24.5059 16.5596L19.2568 11.3105C18.3203 11.8934 17.2155 12.2314 16.0312 12.2314C12.6537 12.2314 9.91526 9.49369 9.91504 6.11621C9.91504 2.73855 12.6536 0 16.0312 0ZM4 8.52344C6.20889 8.5237 7.99995 10.3145 8 12.5234C8 14.7324 6.20892 16.5232 4 16.5234C1.79086 16.5234 0 14.7326 0 12.5234C4.53603e-05 10.3143 1.79089 8.52344 4 8.52344Z" fill="url(#paint0_linear_205_155)"/>
<defs>
<linearGradient id="paint0_linear_205_155" x1="10.933" y1="8.68317" x2="25.4286" y2="24.7072" gradientUnits="userSpaceOnUse">
<stop stop-color="#3B82F6"/>
<stop offset="1" stop-color="#3166BD"/>
<stop offset="1" stop-color="#03070D"/>
</linearGradient>
</defs>
</svg>
